<svg width="201" height="106" viewBox="0 0 201 106" xmlns="http://www.w3.org/2000/svg">
<mask id="mask0_403_19" style="mask-type:alpha" maskUnits="userSpaceOnUse" x="0" y="0" width="201" height="106">
<path d="M48.4384 43.0662C48.4384 44.4612 48.1267 46.2816 47.5034 48.5274C46.9692 50.328 46.4597 52.1484 45.9749 53.9886C45.7968 56.2443 45.3763 59.5042 44.7135 63.7683C44.575 64.4015 44.0407 64.7181 43.1107 64.7181C41.419 64.7181 38.8714 64.6983 35.468 64.6587C32.0746 64.6092 29.5122 64.5845 27.7808 64.5845C23.121 64.5845 16.8584 64.9506 8.99315 65.6827C8.54795 65.7222 7.35084 65.8756 5.40183 66.1427C3.84855 66.3703 2.62671 66.484 1.7363 66.484C0.578767 66.484 0 65.4156 0 63.2786C0 62.1408 0.756849 58.9749 2.27055 53.7808C3.73478 48.844 4.79833 45.6534 5.46119 44.2089C5.77778 43.5065 6.35654 43.1553 7.19749 43.1553C8.92884 43.1553 11.5259 43.2443 14.9886 43.4224C18.4513 43.6005 21.0483 43.6895 22.7797 43.6895C26.4304 43.6895 32.4505 43.0712 40.8402 41.8345C45.2428 41.1716 47.3105 40.8402 47.0434 40.8402C47.9734 40.8402 48.4384 41.5822 48.4384 43.0662Z" />
<path d="M109.535 37.041C109.496 37.041 107.492 36.0913 103.525 34.1917C99.5677 32.2922 96.3325 31.3424 93.8196 31.3424C88.8927 31.3424 86.4292 33.5833 86.4292 38.065C86.4292 40.6967 88.7294 43.4371 93.3299 46.2865C100.671 50.788 104.935 53.5483 106.122 54.5673C110.723 58.6236 113.023 63.4813 113.023 69.1403C113.023 81.5863 105.741 89.882 91.178 94.0273C91.5342 100.557 91.7123 104.173 91.7123 104.876C91.7123 105.291 91.2127 105.543 90.2134 105.632C89.5308 105.721 88.5513 105.721 87.2751 105.632C85.8108 105.494 85.0985 105.425 85.1381 105.425C84.5445 105.425 83.6739 105.504 82.5262 105.662C81.3885 105.82 80.5475 105.899 80.0034 105.899C79.6373 105.899 79.2911 105.83 78.9646 105.692C78.6975 105.296 78.5639 104.218 78.5639 102.457C78.5639 101.052 78.6529 98.8751 78.831 95.9269C66.9292 95.9269 60.8942 95.1206 60.726 93.5079C60.6765 93.2012 60.6963 92.7857 60.7854 92.2613C60.8348 91.5589 60.8596 91.1236 60.8596 90.9554C60.8596 89.2043 60.721 87.1069 60.444 84.6632C60.3649 83.9212 60.078 82.546 59.5833 80.5376C59.1183 78.6974 58.8858 77.3222 58.8858 76.412C58.8858 75.4919 59.3953 75.0319 60.4143 75.0319C61.5224 75.0319 63.4813 75.3485 66.2911 75.9817C69.1008 76.6148 71.2823 76.9314 72.8356 76.9314C80.6316 76.9314 84.5296 74.3789 84.5296 69.2739C84.5296 66.7313 82.2393 63.882 77.6586 60.726C70.1792 55.6011 65.8953 52.5045 64.807 51.436C60.2264 47.162 57.936 42.3736 57.936 37.0707C57.936 31.1841 60.1225 25.9801 64.4954 21.4588C68.6408 17.1651 73.7359 14.4444 79.7808 13.2967C79.7808 13.7024 79.7115 12.5795 79.573 9.92801C79.484 7.91964 79.5087 6.35647 79.6472 5.23851C79.8253 3.64567 80.2408 2.84924 80.8938 2.84924H92.1575C92.6818 2.84924 93.0133 3.54178 93.1518 4.92687C93.2804 5.94589 93.3002 7.35571 93.2111 9.15632C93.1221 11.6 93.0776 12.6636 93.0776 12.347C95.729 12.525 99.9783 13.5342 105.825 15.3744C112.523 17.4817 115.872 19.2971 115.872 20.8207C115.872 21.1373 115.734 21.721 115.457 22.5718C114.804 23.9174 113.943 25.9801 112.874 28.7602C112.548 30.2838 111.964 32.5296 111.123 35.4976C110.817 36.5266 110.287 37.041 109.535 37.041Z" />
<path d="M135.639 103.525C135.412 103.525 135.095 103.441 134.69 103.273C131.059 102.046 126.844 100.483 122.046 98.5833C121.729 98.4151 121.571 98.059 121.571 97.5148C121.571 96.9707 121.64 96.3672 121.779 95.7043C128.011 74.4136 132.567 58.223 135.446 47.1324L143.861 14.7215C144.484 11.7336 145.538 7.30137 147.022 1.42466C147.289 0.474886 147.759 0 148.432 0C149.807 0 152.414 0.756849 156.252 2.27055C160.358 3.91286 162.411 5.24848 162.411 6.2774C162.411 6.67314 160.378 14.1279 156.312 28.6416C151.83 44.5205 149.436 53.019 149.129 54.137C147.427 60.7656 144.766 71.3071 141.145 85.7614C140.383 89.4517 139.018 94.8584 137.049 101.982C136.733 103.011 136.263 103.525 135.639 103.525Z" />
<path d="M200.402 79.7511C200.402 84.213 198.873 88.027 195.816 91.1929C192.769 94.3489 189.064 95.9269 184.701 95.9269C180.328 95.9269 176.628 94.339 173.6 91.1632C170.573 87.9775 169.059 84.1735 169.059 79.7511C169.059 75.3287 170.573 71.5395 173.6 68.3835C176.628 65.2176 180.328 63.6346 184.701 63.6346C189.064 63.6346 192.769 65.2176 195.816 68.3835C198.873 71.5395 200.402 75.3287 200.402 79.7511Z" />
</mask>
<g mask="url(#mask0_403_19)">
<rect x="-7" y="-7" width="215" height="124" fill="#f4f5f8" />
</g>
</svg>
