<svg id="vector" xmlns="http://www.w3.org/2000/svg" width="44.08" height="35.754" viewBox="0 0 44.08 35.754"><path fill="inherit" d="M18.048,3.466A10.652,10.652 0,0 1,21.088 14.4c-1.3,3.427 -7.115,3.437 -8.33,-0.1 -1.246,-3.543 -0.708,-8.048 1.956,-10.828A2.207,2.207 0,0 1,18.048 3.466ZM25.994,0.036c-3.131,1.444 -3.3,5.677 -3.178,8.7 0.236,2.765 1.059,6.916 4.531,7.03 3.986,-1.6 3.9,-6.759 3.342,-10.328C30.346,3.039 28.945,-0.392 25.994,0.036ZM41.423,5.2c-1.7,-0.434 -4.214,-0.542 -4.98,1.436 -2.535,5.1 -2.305,11.355 -5.909,16 -2.909,3.527 -7.579,6.006 -12.224,5.225A8.71,8.71 0,0 1,12.2 23.86c-2.619,-4.337 -2.733,-10 -5.819,-14.027 -7.619,-3.26 -6.407,6.154 -6.156,7.726l0.036,0.215v0.01c0.361,2.273 0.482,4.614 1.578,6.683 4.3,8.877 15.42,13.126 24.686,10.534 10.2,-2.913 17.263,-13.34 17.557,-23.8 -0.057,-2.174 -0.4,-5.03 -2.658,-6.006Z" id="path_0"/></svg>
