<svg id="vector" xmlns="http://www.w3.org/2000/svg" width="375" height="232" viewBox="0 0 375 232"><defs><clipPath id="clip_path_0"><path d="M0,0h375v232h-375z"/></clipPath></defs><g id="g_0"><path fill="#f8f9fc" d="M266.886,57.711c20.846,-56.9 84.707,-61.818 124.436,-26.875q0.855,0.753 1.71,1.531c56.957,51.874 30.05,179.706 -88.818,212.106S61.708,217.707 54.762,164.817s47.894,-69.509 133,-54.719C235.844,118.454 252.858,94.047 266.886,57.711Z" clip-path="url(#clip_path_0)"/><path fill="#f8f9fc" d="M46.297,182.978c8.262,6.2 5.891,17.749 -4.675,21.776a21.874,21.874 93.995,0 1,-13.03 0.559c-19.953,-4.67 -24.721,-19.412 -11.159,-29.264C25.806,169.966 38.106,176.832 46.297,182.978Z"/></g><path fill="#18315b" d="M166.417,205.664c0.221,2.161 0.457,4.41 0.704,6.684L187.993,210.522c-0.178,-2.494 -0.356,-4.888 -0.53,-7.133 -0.469,-6.082 -0.899,-11.081 -1.176,-14.187 -0.193,-2.205 -0.314,-3.453 -0.314,-3.453L164.67,187.385S164.831,189.224 165.11,192.229C165.416,195.571 165.872,200.352 166.417,205.664Z" id="path_0"/><path fill="#000b29" d="M165.11,192.229c0.306,3.342 0.762,8.124 1.307,13.437A105.02,105.02 130,0 0,187.468 203.389c-0.469,-6.082 -0.899,-11.081 -1.176,-14.187Z" id="path_1"/><path fill="#18315b" d="M139.693,203.167C140.014,206.567 140.395,210.461 140.829,214.649L161.704,212.822c-0.164,-2.46 -0.334,-4.889 -0.503,-7.21 -0.362,-4.98 -0.717,-9.462 -0.98,-12.683 -0.26,-3.169 -0.431,-5.118 -0.431,-5.118L138.515,189.9S138.7,192.159 139.033,195.958C139.208,197.966 139.432,200.403 139.693,203.167Z" id="path_2"/><path fill="#000b29" d="M139.034,195.958C139.21,197.967 139.432,200.403 139.693,203.167A131,131 0,0 0,161.201 205.613c-0.362,-4.98 -0.717,-9.462 -0.98,-12.683Z" id="path_3"/><path fill="#18315b" d="M163.678,74.63s3.072,-3.524 2.782,-6.713 -2.376,-2.058 -3.8,-4.928 -5.04,-4.377 -6.904,-3.852S149.241,52.62 143.928,54.4s-4.234,8.702 -6.484,9.919 -1.235,5.295 0.08,6.129 2.168,4.576 2.854,4.43S163.678,74.63 163.678,74.63Z" id="path_4"/><path fill="#f97853" d="M141.096,76.529S138.742,73.901 137.377,76.363s1.453,9.135 5.14,7.123Z" id="path_5"/><path fill="#ea5143" d="M141.499,81.438a0.326,0.326 130,0 1,-0.334 -0.21A5.035,5.035 130,0 0,138.091 78.486,0.326 0.326,130 0,1 138.268,77.859 5.609,5.609 130,0 1,141.776 80.998a0.326,0.326 130,0 1,-0.19 0.418A0.33,0.33 130,0 1,141.499 81.438Z" id="path_6"/><path fill="#ea5143" d="M139.188,80.563A0.322,0.322 130,0 1,139.009 80.527a0.326,0.326 130,0 1,-0.139 -0.44A2.985,2.985 130,0 1,140.004 78.999,0.326 0.326,130 0,1 140.321,79.568a2.36,2.36 130,0 0,-0.872 0.822A0.325,0.325 130,0 1,139.188 80.563Z" id="path_7"/><path fill="#f97853" d="M162.829,74.627S164.692,71.631 166.463,73.818 166.619,83.067 162.633,81.726Z" id="path_8"/><path fill="#ea5143" d="M163.286,79.532A0.326,0.326 130,0 0,163.577 79.268a5.038,5.038 130,0 1,2.552 -3.235,0.326 0.326,130 0,0 -0.282,-0.587A5.608,5.608 130,0 0,162.937 79.147a0.326,0.326 130,0 0,0.259 0.379A0.337,0.337 130,0 0,163.286 79.532Z" id="path_9"/><path fill="#ea5143" d="M165.409,78.269a0.326,0.326 130,0 0,0.228 -0.522A2.976,2.976 130,0 0,164.334 76.871,0.326 0.326,130 1,0 164.121,77.486a2.365,2.365 130,0 1,1.001 0.658A0.325,0.325 130,0 0,165.409 78.269Z" id="path_10"/><path fill="#ffa681" d="M158.279,87.978L158.876,94.807s-1.733,3.657 -4.466,4.134S148.952,96.401 148.952,96.401L148.333,89.332Z" id="path_11"/><path fill="#f97853" d="M158.279,87.978L158.544,91.007C156.875,93.22 153.638,94.019 148.718,93.728L148.333,89.332Z" id="path_12"/><path fill="#ffa681" d="M163.944,69.81a66.621,66.621 130,0 1,-0.131 8.704c-0.069,0.673 -0.157,1.309 -0.267,1.88C162.55,85.551 159.709,94.496 149.331,91.782 144.749,90.584 142.254,85.813 140.895,80.859A48.869,48.869 130,0 1,139.407 71.574a7.157,7.157 130,0 1,3.086 -6.383C148.135,61.303 154.521,62.009 158.782,63.236A7.134,7.134 130,0 1,163.944 69.81Z" id="path_13"/><path fill="#18315b" d="M140.897,80.857A52.869,52.869 130,0 0,143.49 88.63c1.11,2.04 3.663,2.219 4.768,3.929 1.572,2.437 3.808,4.284 7.084,2.753 2.725,-1.273 2.474,-2.702 3.952,-3.954 2.536,-2.144 3.691,-4.361 3.648,-6.111A55.3,55.3 130,0 1,163.815 78.51L162.355,78.537a37.905,37.905 130,0 1,-1.727 3.776C159.169,79.741 153.462,82.204 153.462,82.204l-1.091,0.462 -1.184,-0.263S145.076,81.053 144.148,83.971A10.658,10.658 130,0 1,142.258 80.458ZM152.453,83.573c6.642,-1.748 5.782,2.305 5.751,2.451l0,0l0,0A6.71,6.71 130,0 1,156.911 87.2c-2.489,1.64 -2.79,1.449 -3.817,1.588A7.779,7.779 130,0 1,149.033 88.054a11.3,11.3 130,0 1,-2.018 -1.27S145.644,83.255 152.453,83.573Z" id="path_14"/><path fill="#18315b" d="M147.779,76.842c0.064,0.729 -0.26,1.353 -0.724,1.393S146.165,77.718 146.101,76.989 146.361,75.636 146.824,75.596 147.716,76.113 147.779,76.842Z" id="path_15"/><path fill="#18315b" d="M157.755,75.97c0.064,0.729 -0.26,1.353 -0.724,1.393S156.141,76.846 156.077,76.116 156.337,74.764 156.8,74.723 157.692,75.24 157.755,75.97Z" id="path_16"/><path fill="#18315b" d="M159.84,71.407S156.252,70.34 153.683,71.727l0.397,1.461s3.889,-0.675 5.935,-0.046A2.588,2.588 130,0 0,159.84 71.407Z" id="path_17"/><path fill="#18315b" d="M143.352,72.857S146.724,71.17 149.516,72.097l-0.138,1.518S145.401,73.627 143.482,74.607A2.6,2.6 130,0 1,143.352 72.857Z" id="path_18"/><path fill="#f97853" d="M152.638,81.991A3.465,3.465 130,0 0,153.791 81.642a0.326,0.326 130,0 0,-0.297 -0.576,1.955 1.955,130 0,1 -1.29,0.236 0.354,0.354 130,0 1,-0.186 -0.285A49.211,49.211 130,0 1,151.777 76.025,0.326 0.326,130 0,0 151.126,76.03a48.2,48.2 130,0 0,0.246 5.106A0.993,0.993 130,0 0,151.915 81.883,1.372 1.372,130 0,0 152.638,81.991Z" id="path_19"/><path fill="#fff" d="M148.694,84.555C149.049,85.773 150.067,87.98 152.824,87.739S156.182,85.346 156.323,83.888Z" id="path_20"/><path fill="#18315b" d="M163.944,69.81a66.621,66.621 130,0 1,-0.131 8.704l-1.459,0.027s0.156,-2.271 0.19,-3.746 0.071,-4.222 -1.204,-4.459 -0.815,-3.406 -2.662,-4.604 -5.793,-2.056 -8.206,-0.263 -5.389,1.174 -6.54,1.553 -2.608,2.135 -2.045,3.612S141.241,73.139 141.06,74.734s1.197,5.724 1.197,5.724l-1.361,0.4A48.869,48.869 130,0 1,139.407 71.574a7.157,7.157 130,0 1,3.086 -6.383C148.135,61.303 154.521,62.009 158.782,63.236A7.134,7.134 130,0 1,163.944 69.81Z" id="path_21"/><path fill="#0094cf" d="M191.282,195.625a115.847,115.847 130,0 1,-19.415 4.955c-0.297,0.048 -0.594,0.096 -0.886,0.142q-1.346,0.21 -2.695,0.387a112.2,112.2 130,0 1,-13.427 0.946q-1.361,0.019 -2.724,-0.006 -0.435,-0.004 -0.873,-0.016a117.868,117.868 130,0 1,-16.264 -1.488c-0.484,-4.915 -1.783,-20.472 -2.957,-37.364 -0.142,-2.03 -0.283,-4.08 -0.417,-6.132 -1.472,-22.269 -2.532,-44.913 -1.088,-47.317 1.385,-2.3 5.888,-5.465 10.212,-8.342l0.771,-0.512c0.972,-0.644 1.92,-1.272 2.815,-1.859C146.245,97.754 147.893,96.63 148.898,95.785l0.054,0.618s2.724,3.019 5.456,2.539C156.898,98.506 158.554,95.441 158.833,94.894a63.883,63.883 130,0 0,6.061 2.782c0.718,0.304 1.459,0.613 2.216,0.933q0.417,0.175 0.84,0.355c5.249,2.221 10.919,4.747 12.738,6.835a2.76,2.76 130,0 1,0.419 0.789c1.246,3.168 2.786,13.91 4.293,26.949l0.012,0.141q0.094,0.795 0.181,1.59c0.006,0.07 0.012,0.14 0.024,0.211 0.519,4.572 1.032,9.394 1.526,14.238 0.04,0.384 0.08,0.769 0.119,1.153 0.017,0.194 0.034,0.386 0.057,0.578q0.148,1.431 0.285,2.857 0.108,1.051 0.209,2.102C189.53,173.919 190.903,190.462 191.282,195.625Z" id="path_22"/><path fill="#264cbe" d="M185.599,135.268C183.793,132.827 181.866,130.342 180.065,128.153l-0.014,-0.017C179.296,127.217 178.562,126.351 177.871,125.561a0.323,0.323 130,0 0,-0.036 -0.04C177.615,125.273 177.4,125.033 177.19,124.8A0.48,0.48 130,0 1,177.11 124.669l0,0A0.437,0.437 130,0 1,177.84 124.214c2.141,2.374 4.914,5.815 7.56,9.321l0.012,0.141Q185.51,134.466 185.599,135.268Z" id="path_23"/><path fill="#0094cf" d="M180.725,105.432S192.216,122.703 199.05,131.367c0,0 3.156,-3.453 7.25,-8.063 4.439,-4.996 10.388,-13.218 10.388,-13.218l4.043,4.023S208.203,142.177 201.827,146.118 181.077,127.336 181.077,127.336Z" id="path_24"/><path fill="#264cbe" d="M145.062,180.582L145.046,180.583a0.45,0.45 130,0 1,-0.472 -0.425C143.811,165.464 135.801,161.384 135.72,161.344A0.449,0.449 130,0 1,136.112 160.535,13.7 13.7,130 0,1 140.535,164.578C142.558,167.275 145.06,172.16 145.475,180.11A0.45,0.45 130,0 1,145.062 180.582Z" id="path_25"/><path fill="#264cbe" d="M176.257,163.948a0.45,0.45 130,0 1,-0.482 -0.373c-0.51,-3.067 0.309,-5.403 1.346,-8.363 0.303,-0.867 0.617,-1.76 0.931,-2.763C180.019,146.174 178.158,139.36 178.139,139.293A0.449,0.449 130,0 1,179.005 139.052c0.08,0.288 1.95,7.14 -0.096,13.66 -0.319,1.016 -0.635,1.919 -0.94,2.793C176.936,158.458 176.19,160.59 176.662,163.427a0.449,0.449 130,0 1,-0.369 0.517Z" id="path_26"/><path fill="#fff" d="M144.331,99.023C144.648,100.451 145.093,102.294 145.584,104.392c0.149,0.622 0.3,1.269 0.454,1.933 0.503,2.164 1.034,4.527 1.519,6.918 0.13,0.642 0.257,1.283 0.38,1.928 0.45,2.37 0.841,4.729 1.099,6.931q0.121,0.999 0.198,1.951a31.24,31.24 130,0 1,0.1 4.586q-0.089,1.273 -0.133,2.486 -0.04,1.007 -0.057,1.977c-0.043,2.513 0.029,4.844 0.184,7.033q0.071,0.998 0.164,1.951c0.237,2.48 0.581,4.78 0.978,6.963q0.178,0.98 0.37,1.929c0.478,2.382 1.009,4.644 1.506,6.882q0.22,0.962 0.431,1.918c0.223,1.024 0.44,2.048 0.64,3.08 0.212,1.095 0.399,2.38 0.559,3.811 0.073,0.625 0.138,1.279 0.2,1.955 0.196,2.142 0.349,4.52 0.467,7.011q0.045,0.976 0.085,1.976c0.091,2.315 0.152,4.699 0.195,7.054q0.015,0.995 0.027,1.979c0.033,2.452 0.04,4.842 0.031,7.068 -0.002,0.676 -0.006,1.336 -0.012,1.976 -0.02,2.45 -0.057,4.63 -0.104,6.369a111.98,111.98 130,0 0,13.427 -0.947c-0.061,-1.843 -0.03,-4.826 -0.054,-8.333 -0.004,-0.642 -0.014,-1.304 -0.019,-1.977 -0.026,-2.229 -0.081,-4.61 -0.19,-7.01 -0.029,-0.657 -0.063,-1.317 -0.102,-1.973 -0.142,-2.39 -0.346,-4.759 -0.643,-6.97 -0.09,-0.672 -0.186,-1.327 -0.294,-1.964s-0.229,-1.285 -0.359,-1.897a38.995,38.995 130,0 1,-0.731 -5.055c-0.057,-0.656 -0.095,-1.311 -0.122,-1.968 -0.099,-2.28 -0.047,-4.576 0.028,-7.018 0.02,-0.648 0.043,-1.309 0.066,-1.98 0.071,-2.171 0.141,-4.474 0.136,-6.988 -0,-0.644 -0.007,-1.304 -0.017,-1.977 -0.04,-2.153 -0.14,-4.461 -0.345,-6.968q-0.078,-0.969 -0.179,-1.979c-0.214,-2.167 -0.508,-4.479 -0.903,-6.963q-0.051,-0.331 -0.107,-0.668c-0.071,-0.434 -0.138,-0.873 -0.196,-1.313a66.776,66.776 130,0 1,-0.566 -6.966q-0.033,-0.99 -0.044,-1.982c-0.024,-2.356 0.036,-4.698 0.146,-6.947q0.047,-1.008 0.107,-1.984c0.153,-2.468 0.345,-4.795 0.528,-6.872 0.061,-0.685 0.119,-1.344 0.174,-1.971 0.125,-1.405 0.23,-2.657 0.295,-3.715A64.006,64.006 130,0 1,158.834 94.894c-0.279,0.547 -1.936,3.612 -4.426,4.048 -2.731,0.48 -5.456,-2.534 -5.456,-2.534L148.898,95.785C147.893,96.629 146.245,97.753 144.331,99.023Z" id="path_27"/><path fill="#e3e3e3" d="M145.584,104.392c0.149,0.622 0.3,1.269 0.454,1.933a36.5,36.5 59.418,0 0,8.768 -1.895,23.691 23.691,130 0,1 9.622,-1.072c0.061,-0.685 0.119,-1.344 0.174,-1.971A25.65,25.65 130,0 0,154.196 102.563,34.149 34.149,130 0,1 145.584,104.392Z" id="path_28"/><path fill="#e3e3e3" d="M147.558,113.243c0.13,0.642 0.257,1.283 0.38,1.928A39.594,39.594 130,0 0,155.586 113.38a23.65,23.65 130,0 1,8.205 -1.159q0.047,-1.008 0.107,-1.984a25.79,25.79 130,0 0,-8.923 1.275A37.834,37.834 130,0 1,147.558 113.243Z" id="path_29"/><path fill="#e3e3e3" d="M149.036,122.102Q149.156,123.101 149.233,124.055A41.218,41.218 130,0 0,156.367 122.327a23.779,23.779 130,0 1,7.325 -1.176q-0.033,-0.99 -0.044,-1.982a25.888,25.888 130,0 0,-7.882 1.292A40.071,40.071 130,0 1,149.036 122.102Z" id="path_30"/><path fill="#e3e3e3" d="M149.14,133.103A38.746,38.746 130,0 0,157.151 131.269a23.735,23.735 130,0 1,7.406 -1.174q-0.052,-0.331 -0.107,-0.668c-0.071,-0.434 -0.138,-0.873 -0.196,-1.313A25.862,25.862 130,0 0,156.545 129.399,37.949 37.949,130 0,1 149.197,131.125Q149.155,132.132 149.14,133.103Z" id="path_31"/><path fill="#e3e3e3" d="M149.483,142.087A37.354,37.354 130,0 0,157.933 140.22a23.78,23.78 130,0 1,7.706 -1.176q-0.078,-0.969 -0.179,-1.979A25.891,25.891 130,0 0,157.326 138.345,35.931 35.931,130 0,1 149.323,140.136Q149.394,141.131 149.483,142.087Z" id="path_32"/><path fill="#e3e3e3" d="M150.465,149.05q0.178,0.98 0.37,1.929A39.056,39.056 130,0 0,158.715 149.165a23.743,23.743 130,0 1,7.286 -1.179c-0,-0.644 -0.007,-1.304 -0.017,-1.977a25.84,25.84 130,0 0,-7.873 1.291A37.156,37.156 130,0 1,150.465 149.05Z" id="path_33"/><path fill="#e3e3e3" d="M152.342,157.861Q152.561,158.818 152.773,159.779A42.492,42.492 130,0 0,159.498 158.111a23.888,23.888 130,0 1,6.301 -1.154c0.02,-0.648 0.043,-1.309 0.066,-1.98A26.014,26.014 130,0 0,158.892 156.238,40.85 40.85,130 0,1 152.342,157.861Z" id="path_34"/><path fill="#e3e3e3" d="M153.972,166.669c0.073,0.625 0.138,1.279 0.2,1.955A44.143,44.143 130,0 0,160.28 167.051a24.142,24.142 130,0 1,5.612 -1.113c-0.057,-0.656 -0.095,-1.311 -0.122,-1.968A26.184,26.184 130,0 0,159.674 165.184,43.782 43.782,130 0,1 153.972,166.669Z" id="path_35"/><path fill="#e3e3e3" d="M154.723,177.611A44.124,44.124 130,0 0,161.063 175.997a23.863,23.863 130,0 1,6.214 -1.146c-0.09,-0.672 -0.186,-1.327 -0.294,-1.964A26.114,26.114 130,0 0,160.458 174.129a43.085,43.085 130,0 1,-5.819 1.506Q154.684,176.61 154.723,177.611Z" id="path_36"/><path fill="#e3e3e3" d="M154.943,186.643A42.236,42.236 130,0 0,161.846 184.948a23.974,23.974 130,0 1,6.177 -1.15c-0.029,-0.657 -0.063,-1.317 -0.102,-1.973A26.067,26.067 130,0 0,161.239 183.074,41.255 41.255,130 0,1 154.917,184.665Q154.933,185.659 154.943,186.643Z" id="path_37"/><path fill="#e3e3e3" d="M154.963,195.686A39.668,39.668 130,0 0,162.628 193.889a23.939,23.939 130,0 1,5.603 -1.113c-0.004,-0.642 -0.014,-1.304 -0.019,-1.977A26.081,26.081 130,0 0,162.022 192.019,39.083 39.083,130 0,1 154.975,193.71C154.972,194.386 154.969,195.046 154.963,195.686Z" id="path_38"/><path fill="#264cbe" d="M170.982,200.722c0.297,-0.046 0.594,-0.094 0.886,-0.141 0.856,-10.515 -1.49,-25.627 -2.276,-30.253A51.126,51.126 130,0 1,170.163 153.086C171.078,148.307 169.319,137.561 167.913,128.935c-0.397,-2.423 -0.771,-4.711 -1.04,-6.594C166.001,116.254 167.226,104.741 167.95,98.962L167.11,98.605C166.38,104.329 165.097,116.105 166.004,122.466c0.266,1.892 0.647,4.185 1.043,6.611C168.447,137.637 170.19,148.294 169.309,152.92a52,52 73.453,0 0,-0.572 17.554C169.516,175.106 171.878,190.316 170.982,200.722Z" id="path_39"/><path fill="#264cbe" d="M149.247,160.156a56.691,56.691 130,0 1,1.669 15.264c0.013,1.56 0.027,3.17 0.092,4.944 0.209,5.566 0.248,16.808 0.255,21.671 0.292,0.008 0.582,0.012 0.874,0.016 -0.007,-4.863 -0.045,-16.133 -0.254,-21.721 -0.067,-1.761 -0.08,-3.366 -0.093,-4.917A57.5,57.5 127.633,0 0,150.092 159.942c-0.346,-1.375 -0.709,-2.759 -1.065,-4.141C147.244,148.965 145.403,141.891 145.676,138.402c0.066,-0.851 0.161,-1.821 0.264,-2.846 0.415,-4.218 0.936,-9.467 0.238,-13.921C145.484,117.221 142.612,105.353 141.517,100.882L140.743,101.394C141.887,106.069 144.642,117.482 145.315,121.77c0.681,4.343 0.167,9.533 -0.244,13.7C144.967,136.5 144.871,137.473 144.805,138.338c-0.284,3.639 1.493,10.46 3.375,17.688C148.54,157.402 148.9,158.789 149.247,160.156Z" id="path_40"/><path fill="#ffa681" d="M128.253,117.378S121.976,147.706 120.703,158.43 121.176,191.063 121.176,191.063 118.009,199.442 118.223,203.031c0.234,3.824 2.505,6.684 2.495,9.202s2.911,0.896 1.61,-4.087 0.734,-9.776 1.799,-9.721 -0.388,5.598 0.715,7.453S126.829,203.869 127.831,201.472c1.04,-2.48 0.515,-7.646 -0.376,-11.288S131.295,163.532 130.762,157.031L136.723,127.649S132.883,115.938 128.253,117.378Z" id="path_41"/><path fill="#0094cf" d="M137.751,126.835a75.9,75.9 130,0 1,-1.898 9.502l0,0c-0.084,0.356 -0.171,0.718 -0.258,1.088a0.4,0.4 130,0 0,-0.012 0.052c-0.25,1.05 -0.514,2.153 -0.78,3.285l-0.005,0.021c-1.104,4.695 -2.311,10.061 -3.238,15.546 -0.32,1.878 -0.606,3.772 -0.842,5.656 -0.302,2.406 -0.527,4.796 -0.641,7.127 -0.408,8.396 -1.654,19.097 -1.654,19.097C125.363,189.789 120.24,188.501 120.24,188.501s-1.452,-15.125 -1.258,-21.071A158.266,158.266 130,0 1,120.749 148.747,235.659 235.659,130 0,1 129.891,111.067c0.116,-0.352 0.209,-0.621 0.273,-0.815L131.743,110.114C135.03,111.819 138.116,121.647 137.751,126.835Z" id="path_42"/><path fill="#009cf8" d="M119.717,185.493 L120.272,188.957s4.857,1.122 8.308,-0.269L129.24,185.497A26.4,26.4 130,0 1,119.717 185.493Z" id="path_43"/><path fill="#264cbe" d="M135.853,136.333l0,0a0.458,0.458 129.999,0 1,-0.013 0.152Q135.72,136.942 135.596,137.427a0.4,0.4 130,0 0,-0.012 0.052c-0.261,1.018 -0.522,2.123 -0.78,3.285l-0.005,0.021A172.392,172.392 130,0 0,131.779 159.19c-0.074,-0.951 -0.147,-1.907 -0.215,-2.864C131.24,158.205 130.955,160.1 130.718,161.983a67.125,67.125 55.885,0 1,0.715 -7.39A170.985,170.985 130,0 1,134.993 136.262a0.437,0.437 130,0 1,0.857 0.072Z" id="path_44"/><path fill="#18315b" d="M308.188,206.505L329.185,205.772c-0.121,-1.455 -0.239,-2.848 -0.352,-4.164C328.22,194.429 327.738,189.543 327.738,189.543L310.686,190.898 309.272,191.012 306.763,191.212s0.396,4.37 0.997,10.772C307.889,203.398 308.037,204.915 308.188,206.505Z" id="path_45"/><path fill="#000b29" d="M309.272,191.012 L306.763,191.212s0.396,4.37 0.997,10.772a152.652,152.652 133,0 0,21.077 -0.376C328.22,194.429 327.738,189.543 327.738,189.543L310.686,190.898Z" id="path_46"/><path fill="#000b29" d="M312.097,206.368C311.476,199.725 310.968,194.05 310.685,190.899L309.271,191.013C309.552,194.15 310.064,199.797 310.678,206.418Z" id="path_47"/><path fill="#18315b" d="M302.027,206.72c0.045,-1.803 0.087,-3.521 0.122,-5.099C302.299,195.498 302.378,191.365 302.378,191.365L299.652,191.338 298.236,191.324 281.341,191.163S281.26,194.088 281.166,198.735C281.118,201.212 281.068,204.181 281.026,207.453Z" id="path_48"/><path fill="#000b29" d="M281.166,198.735a185.6,185.6 133,0 0,20.985 2.884c0.147,-6.122 0.231,-10.255 0.231,-10.255L299.652,191.338 298.236,191.324 281.341,191.163S281.258,194.088 281.166,198.735Z" id="path_49"/><path fill="#000b29" d="M299.322,206.814c0.151,-6.653 0.27,-12.329 0.328,-15.476L298.235,191.325C298.172,194.486 298.056,200.188 297.904,206.864Z" id="path_50"/><path fill="#003e55" d="M330.9,192.71a100.9,100.9 133,0 1,-12.74 3.111q-2.221,0.392 -4.442,0.675 -2.997,0.383 -5.998,0.583a95.248,95.248 133,0 1,-9.951 0.13A100.793,100.793 133,0 1,278.426 194.542C278.159,188.571 277.5,167.136 277.231,146.451c-0.01,-0.928 -0.023,-1.857 -0.031,-2.781 -0.007,-0.2 -0.005,-0.392 -0.008,-0.588 -0.007,-0.214 -0.005,-0.427 -0.006,-0.639 -0.009,-0.656 -0.014,-1.31 -0.02,-1.961q-0.02,-1.994 -0.032,-3.951 -0.006,-1.171 -0.011,-2.325c-0.006,-0.16 -0.001,-0.318 -0.003,-0.476q-0.003,-0.761 -0.005,-1.513l0,0c0.001,-0.155 -0.001,-0.311 -0,-0.466 -0.002,-0.462 -0.001,-0.922 -0.003,-1.377 0.001,-0.388 0.001,-0.77 0.001,-1.154 0.013,-13.961 0.351,-24.983 1.337,-26.57C280.11,99.957 285.995,96.258 290.723,93.249c1.685,-1.07 3.702,-2.193 4.851,-3.014 1.762,1.32 3.05,2.524 5.585,2.351 2.841,-0.199 3.482,-1.931 4.515,-3.435 0.677,0.407 2.406,1.727 3.297,2.208 0.763,0.415 1.589,0.854 2.447,1.315 1.333,0.702 2.752,1.448 4.154,2.209 2.082,1.128 4.135,2.297 5.844,3.422a15.074,15.074 133,0 1,3.757 3.171c0.994,1.384 1.925,10.539 2.739,22.591 0.031,0.422 0.058,0.85 0.088,1.281 0.002,0.052 0.003,0.1 0.006,0.158 0.031,0.438 0.06,0.887 0.086,1.337q0.13,2.036 0.259,4.153c0.017,0.3 0.035,0.599 0.049,0.899 0.014,0.225 0.029,0.451 0.039,0.673 0.033,0.58 0.067,1.161 0.1,1.749 0.004,0.118 0.008,0.236 0.019,0.353 0.086,1.548 0.172,3.117 0.254,4.7 0.025,0.462 0.048,0.927 0.073,1.391C330.009,162.466 330.754,186.286 330.9,192.71Z" id="path_51"/><path fill="#7e87a1" d="M328.892,140.748 L322.358,147.856l-6.535,-6.176 -6.086,6.616L303.178,142.091 297.065,148.739l-6.602,-6.243L284.311,149.184 277.181,142.442c-0.009,-0.656 -0.014,-1.31 -0.02,-1.961Q277.143,138.487 277.129,136.529L283.622,129.466l6.603,6.245L296.376,129.021l6.561,6.203L309.048,128.578l6.533,6.176L321.669,128.138l6.897,6.52c0.086,1.548 0.172,3.117 0.254,4.7C328.845,139.82 328.868,140.284 328.892,140.748Z" id="path_52"/><path fill="#264cbe" d="M318.435,176.573l0,0c-9.072,0.277 -16.958,-3.58 -21.976,-6.864A49.708,49.708 133,0 1,287.653 162.446,0.437 0.437,133 0,1 288.304,161.86a48.786,48.786 133,0 0,8.654 7.131c4.909,3.21 12.615,6.979 21.447,6.71a0.437,0.437 133,0 1,0.03 0.872Z" id="path_53"/><path fill="#264cbe" d="M312.59,171.406C304.815,170.157 297.773,164.482 297.453,164.221A0.437,0.437 133,0 1,298.004 163.544c0.082,0.067 8.37,6.743 16.595,7.204a0.437,0.437 133,1 1,-0.049 0.872A19.048,19.048 133,0 1,312.59 171.406Z" id="path_54"/><path fill="#035473" d="M294.78,104.825a0.437,0.437 133,0 1,-0.111 -0.863C305.654,101.478 308.738,94.248 308.769,94.175a0.436,0.436 133.002,1 1,0.812 0.332C309.448,94.821 306.286,102.232 294.862,104.81A0.449,0.449 133,0 1,294.78 104.825Z" id="path_55"/><path fill="#035473" d="M281.956,124.445l0,0A0.437,0.437 133,0 1,281.899 124.59c-0.156,0.272 -0.319,0.552 -0.482,0.838 -0.008,0.016 -0.017,0.03 -0.024,0.048 -0.521,0.913 -1.064,1.91 -1.622,2.958a0.03,0.03 133,0 1,-0.009 0.017C278.89,130.113 277.994,131.907 277.115,133.729q-0.003,-0.761 -0.005,-1.513l0,0c0.001,-0.155 -0.001,-0.311 -0,-0.466C278.529,128.879 279.954,126.19 281.148,124.147a0.437,0.437 133,0 1,0.811 0.296Z" id="path_56"/><path fill="#ffa681" d="M337.114,106.325s13.983,-5.039 17.844,-14.465C356.075,89.128 345.15,62.193 345.15,62.193L340.346,62.594s1.702,9.418 2.716,14.75c0.838,4.384 2.126,9.612 2.559,11.334l0.146,0.58c-0.234,0.049 -0.47,0.102 -0.709,0.159C338.504,90.99 330.218,95.588 330.218,95.588Z" id="path_57"/><path fill="#f97853" d="M349.417,91.747A0.453,0.453 133,0 0,350.044 91.625a0.445,0.445 133,0 0,-0.122 -0.629A35.6,35.6 133,0 0,345.626 88.677L345.773,89.258C345.538,89.307 345.303,89.361 345.064,89.418A35.8,35.8 133,0 1,349.417 91.747Z" id="path_58"/><path fill="#003e55" d="M315.041,94.596s-3.927,10.187 7.159,15.396C329.872,113.597 346.686,102.897 346.686,102.897L340.112,90.119S324.63,97.146 315.041,94.596Z" id="path_59"/><path fill="#ffa681" d="M342.152,46.938c-0.415,0.315 -0.264,2.155 -0.016,3.884l-0.182,0.036C341.367,48.559 340.221,44.652 339.385,45.435c-0.547,0.512 0.328,3.885 0.913,5.9l-0.316,0.111C339.249,49.056 337.687,44.457 336.788,45.393c-0.601,0.621 0.736,4.677 1.47,6.741l-0.267,0.116C337.287,50.247 335.799,46.462 334.903,47.395c-0.811,0.844 1.797,6.552 1.797,6.552l0,0l0.71,2.252s-0.738,0.35 -1.955,-0.932 -2.623,-1.466 -1.587,0.414c1.175,2.125 2.853,3.62 3.622,5.126s3.037,1.934 3.037,1.934l4.512,-0.377s0.611,-7.669 -1.203,-11.251l0,0C343.474,48.958 342.875,46.392 342.152,46.938Z" id="path_60"/><path fill="#18315b" d="M286.853,66.506c0.269,7.695 5.192,12.837 12.887,12.568s12.864,-6.159 12.595,-13.856A16.507,16.507 133,0 0,311.119 59.394c-0.042,-0.099 -0.085,-0.206 -0.131,-0.307 -0.089,-0.197 -0.181,-0.394 -0.278,-0.582 -0.144,-0.295 -0.305,-0.578 -0.471,-0.854A11.4,11.4 133,0 0,299.607 52.118C290.377,52.441 286.584,58.809 286.853,66.506Z" id="path_61"/><path fill="#f97853" d="M288.696,69.76S286.458,66.983 284.951,69.396 285.934,78.695 289.768,76.859Z" id="path_62"/><path fill="#ea5143" d="M288.842,74.738a0.329,0.329 133,0 1,-0.325 -0.23A5.09,5.09 133,0 0,285.558 71.577,0.329 0.329,133 0,1 285.769,70.954 5.672,5.672 133,0 1,289.144 74.308a0.329,0.329 133,0 1,-0.214 0.414A0.315,0.315 133,0 1,288.842 74.738Z" id="path_63"/><path fill="#ea5143" d="M286.556,73.732A0.325,0.325 133,0 1,286.377 73.686a0.329,0.329 133,0 1,-0.116 -0.451,3 3,132.228 0,1 1.199,-1.042 0.329,0.329 133,0 1,0.29 0.59,2.378 2.378,133 0,0 -0.924,0.784A0.328,0.328 133,0 1,286.556 73.732Z" id="path_64"/><path fill="#f97853" d="M310.734,68.99S312.773,66.064 314.446,68.366 314.117,77.71 310.161,76.147Z" id="path_65"/><path fill="#ea5143" d="M310.935,73.966a0.329,0.329 133,0 0,0.308 -0.252A5.09,5.09 133,0 1,313.99 70.585,0.329 0.329,133 0,0 313.736,69.977 5.674,5.674 133,0 0,310.603 73.559,0.329 0.329,133 0,0 310.846,73.959 0.315,0.315 133,0 0,310.935 73.966Z" id="path_66"/><path fill="#ea5143" d="M313.146,72.803A0.329,0.329 133,0 0,313.405 72.287a3,3 47.143,0 0,-1.27 -0.956,0.329 0.329,133 1,0 -0.248,0.609 2.378,2.378 133,0 1,0.977 0.717A0.33,0.33 133,0 0,313.146 72.803Z" id="path_67"/><path fill="#ffa681" d="M305.434,82.226L305.676,89.151S303.734,92.75 300.949,93.089 295.573,90.236 295.573,90.236L295.323,83.068Z" id="path_68"/><path fill="#f97853" d="M305.434,82.226L305.541,85.299C303.74,87.445 300.43,88.08 295.479,87.525L295.323,83.068Z" id="path_69"/><path fill="#ffa681" d="M312.115,64.183a67.373,67.373 133,0 1,-0.594 8.779c-0.106,0.675 -0.228,1.309 -0.369,1.884 -1.28,5.154 -4.619,14.032 -14.951,10.743 -4.563,-1.452 -6.827,-6.399 -7.937,-11.472A49.43,49.43 133,0 1,287.253 64.668,7.235 7.235,133 0,1 290.706,58.389C296.611,54.763 303.012,55.815 307.253,57.278A7.21,7.21 133,0 1,312.115 64.183Z" id="path_70"/><path fill="#18315b" d="M295.368,70.432c0.026,0.739 -0.334,1.351 -0.805,1.368S293.695,71.23 293.669,70.492 294.003,69.139 294.474,69.123 295.342,69.693 295.368,70.432Z" id="path_71"/><path fill="#18315b" d="M305.397,70.054c0.026,0.739 -0.334,1.351 -0.805,1.368S303.724,70.852 303.698,70.113 304.032,68.761 304.502,68.745 305.371,69.315 305.397,70.054Z" id="path_72"/><path fill="#18315b" d="M307.162,65.387S304.441,64.419 302.404,65.385l0.247,1.142a13.263,13.263 133,0 1,4.576 0.203A2,2 104.13,0 0,307.162 65.387Z" id="path_73"/><path fill="#18315b" d="M291.519,65.933S294.167,64.778 296.265,65.599l-0.167,1.157a13.26,13.26 133,0 0,-4.551 0.522A1.992,1.992 133,0 1,291.519 65.933Z" id="path_74"/><path fill="#f97853" d="M300.057,75.884A3.518,3.518 133,0 0,301.24 75.593a0.329,0.329 133,1 0,-0.27 -0.601A1.974,1.974 133,0 1,299.654 75.158,0.357 0.357,133 0,1 299.482,74.863 50.005,50.005 133,0 1,299.504 69.816,0.329 0.329,133 1,0 298.848,69.782a48.639,48.639 133,0 0,-0.02 5.167,1 1,103.97 0,0 0.506,0.783A1.389,1.389 133,0 0,300.057 75.884Z" id="path_75"/><path fill="#fff" d="M295.698,77.709C296.311,79.589 297.929,81.428 300.074,81.379 302.213,81.278 303.702,79.331 304.182,77.413Z" id="path_76"/><path fill="#f97853" d="M299.963,83.448a3.438,3.438 133,0 0,1.583 -0.506A0.329,0.329 133,1 0,301.191 82.391,2.8 2.8,133 0,1 299.94,82.787 2.671,2.671 133,0 1,298.729 82.478a0.329,0.329 133,1 0,-0.326 0.572A3.291,3.291 133,0 0,299.963 83.448Z" id="path_77"/><path fill="#18315b" d="M311.935,69.007L310.444,69.059c0.113,-1.505 0.255,-4.147 -0.986,-4.482 -3.926,-1.058 1.012,-3.979 -0.785,-5.286s-6.146,-0.571 -9.185,-0.563a65.086,65.086 133,0 0,-9.146 0.541c-1.185,0.315 -0.461,2.274 0.033,3.796S289.018,66.346 288.758,67.946a7.012,7.012 133,0 0,0.065 1.868L287.577,69.858C287.362,67.929 287.277,66.129 287.253,64.668A7.235,7.235 133,0 1,290.706 58.389C296.611,54.763 303.012,55.815 307.253,57.278A7.21,7.21 133,0 1,312.115 64.183C312.093,65.663 312.045,67.343 311.935,69.007Z" id="path_78"/><path fill="#fff" d="M294.506,74.342A3.727,3.727 133,1 1,298.1 70.488,3.731 3.731,133 0,1 294.506,74.342ZM294.266,67.474A3.146,3.146 133,1 0,297.519 70.508,3.149 3.149,133 0,0 294.266,67.474Z" id="path_79"/><path fill="#fff" d="M304.686,73.986A3.727,3.727 133,1 1,308.279 70.133,3.731 3.731,133 0,1 304.686,73.986ZM304.446,67.118A3.146,3.146 133,1 0,307.699 70.153,3.149 3.149,133 0,0 304.446,67.118Z" id="path_80"/><path fill="#fff" d="M291.238,69.527a0.289,0.289 133,0 1,-0.203 -0.077l0,0A4.577,4.577 133,0 0,287.063 68.447,0.29 0.29,133 1,1 286.912,67.886 5.087,5.087 133,0 1,291.43 69.024a0.29,0.29 133,0 1,-0.187 0.507Z" id="path_81"/><path fill="#fff" d="M307.678,68.952a0.29,0.29 133,0 1,-0.178 -0.528C307.608,68.348 310.184,66.556 312.439,66.847a0.29,0.29 133,1 1,-0.074 0.576C310.336,67.161 307.86,68.882 307.834,68.899A0.287,0.287 133,0 1,307.678 68.952Z" id="path_82"/><path fill="#fff" d="M301.007,69.549a2.351,2.351 133,0 0,-1.632 -0.887,2.139 2.139,133 0,0 -1.494,0.994L297.379,69.351A2.689,2.689 133,0 1,299.35 68.082,2.9 2.9,133 0,1 301.466,69.193Z" id="path_83"/><path fill="#ffa681" d="M280.711,123.941a105.771,105.771 133,0 1,-8.068 13.913,35.542 35.542,133 0,1 -4.024,4.823c-2.2,2.13 -4.378,3.281 -6.219,2.433C255.595,141.969 239.741,115.646 239.741,115.646L243.264,111.161s6.907,7.435 11.921,11.854c4.626,4.075 8.179,7.119 8.179,7.119 0.587,-0.965 1.211,-2.022 1.86,-3.14 0.69,-1.187 1.405,-2.443 2.131,-3.734C272.626,113.883 278.445,102.648 278.445,102.648Z" id="path_84"/><path fill="#f97853" d="M272.642,137.855a35.537,35.537 133,0 1,-4.024 4.823L265.224,126.993C265.914,125.81 266.628,124.549 267.355,123.258Z" id="path_85"/><path fill="#003e55" d="M278.444,102.648 L265.771,124.203 270.916,142.598l10.462,-18.455S282.299,111.734 278.444,102.648Z" id="path_86"/><path fill="#006bde" d="M264.856,207.358c-1.417,-5.207 -2.878,-11.091 -4.242,-16.811q-0.45,-1.897 -0.885,-3.756c-1.106,-4.738 -2.112,-9.221 -2.939,-12.941 -0.312,-1.413 -0.596,-2.719 -0.853,-3.883C255.135,166.248 254.65,163.939 254.65,163.939L233.612,166.583 212.37,167.638S212.228,172.304 211.937,179.076c-0.053,1.232 -0.111,2.533 -0.173,3.891C211.605,186.522 211.407,190.45 211.176,194.474l-0.011,0.177c-0.073,1.254 -0.147,2.517 -0.228,3.78a0.3,0.3 130,0 1,-0.005 0.051l0,0c-0.19,3.053 -0.401,6.103 -0.63,9.041 -0.095,1.213 -0.191,2.404 -0.29,3.564q-0.053,0.543 -0.097,1.076Z" id="path_87"/><path fill="#264cbe" d="M217.791,173.554A2,2 86.53,1 1,215.63 171.735,2 2,86.53 0,1 217.791,173.554Z" id="path_88"/><path fill="#264cbe" d="M223.402,180.829A2,2 86.53,1 1,221.241 179.01,2 2,86.53 0,1 223.402,180.829Z" id="path_89"/><path fill="#264cbe" d="M232.766,176A2,2 86.53,1 1,230.606 174.182,2 2,86.53 0,1 232.766,176Z" id="path_90"/><path fill="#264cbe" d="M218.501,189.506A2,2 86.53,1 1,216.34 187.687,2 2,86.53 0,1 218.501,189.506Z" id="path_91"/><path fill="#264cbe" d="M230.563,187.593A2,2 86.53,1 1,228.403 185.775,2 2,86.53 0,1 230.563,187.593Z" id="path_92"/><path fill="#264cbe" d="M213.399,180.828A2,2 86.257,0 1,211.769 182.967C211.831,181.609 211.888,180.308 211.941,179.076A2,2 86.257,0 1,213.399 180.828Z" id="path_93"/><path fill="#264cbe" d="M251.364,197.551A2,2 86.53,1 1,249.204 195.733,2 2,86.53 0,1 251.364,197.551Z" id="path_94"/><path fill="#264cbe" d="M249.476,186.796A2,2 86.53,1 1,247.315 184.977,2 2,86.53 0,1 249.476,186.796Z" id="path_95"/><path fill="#264cbe" d="M260.615,190.545A2,2 58.173,1 1,259.504 186.794a1.605,1.605 130,0 1,0.23 -0.005Q260.168,188.643 260.615,190.545Z" id="path_96"/><path fill="#264cbe" d="M253.108,205.401A2,2 130.042,1 1,250.949 203.582,2 2,130.042 0,1 253.108,205.401Z" id="path_97"/><path fill="#264cbe" d="M261.34,201.481A2,2 57.875,1 1,259.179 199.662,2 2,57.875 0,1 261.34,201.481Z" id="path_98"/><path fill="#264cbe" d="M244.17,209.166A1.991,1.991 130,0 0,240.891 209.453Z" id="path_99"/><path fill="#264cbe" d="M218.292,202.187A2,2 86.53,1 1,216.131 200.369,2 2,86.53 0,1 218.292,202.187Z" id="path_100"/><path fill="#264cbe" d="M212.493,196.36A1.992,1.992 130,0 1,210.935 198.484a0.286,0.286 130,0 0,0.005 -0.051C211.02,197.167 211.095,195.904 211.167,194.65A2,2 129.898,0 1,212.493 196.36Z" id="path_101"/><path fill="#264cbe" d="M211.26,209.057A2,2 129.898,0 1,210.01 211.089C210.109,209.928 210.206,208.737 210.3,207.524A2,2 45.455,0 1,211.26 209.057Z" id="path_102"/><path fill="#264cbe" d="M223.845,208.808A2,2 86.53,1 1,221.684 206.989,2 2,86.53 0,1 223.845,208.808Z" id="path_103"/><path fill="#264cbe" d="M234.207,206.331A2,2 86.53,1 1,232.047 204.512,2 2,86.53 0,1 234.207,206.331Z" id="path_104"/><path fill="#264cbe" d="M225.861,197.206A2,2 86.53,1 1,223.701 195.387,2 2,86.53 0,1 225.861,197.206Z" id="path_105"/><path fill="#264cbe" d="M236.37,194.282A2,2 86.53,1 1,234.21 192.463,2 2,86.53 0,1 236.37,194.282Z" id="path_106"/><path fill="#264cbe" d="M240.261,183.363A2,2 86.53,1 1,238.1 181.544,2 2,86.53 0,1 240.261,183.363Z" id="path_107"/><path fill="#264cbe" d="M256.794,173.847A1.883,1.883 130,0 1,256.374 173.932,2 2,69.407 0,1 255.94,169.963C256.197,171.127 256.481,172.434 256.794,173.847Z" id="path_108"/><path fill="#264cbe" d="M246.423,174.805A2,2 86.53,1 1,244.262 172.987,2 2,86.53 0,1 246.423,174.805Z" id="path_109"/><path fill="#264cbe" d="M254.33,181.258A2,2 86.53,1 1,252.169 179.439,2 2,86.53 0,1 254.33,181.258Z" id="path_110"/><path fill="#264cbe" d="M243.718,199.963A2,2 86.53,1 1,241.557 198.144,2 2,86.53 0,1 243.718,199.963Z" id="path_111"/><path fill="#d31818" d="M255.98,164.348c-10.499,8.246 -30.993,9.462 -44.43,3.887C212.109,160.482 213.057,152.688 211.819,142.547q-0.205,-1.668 -0.433,-3.31 -0.2,-1.427 -0.415,-2.829C208.381,119.575 204.282,105.987 205.545,104.075a13.551,13.551 130,0 1,2.709 -2.747q0.706,-0.577 1.511,-1.172c1.262,-0.93 2.671,-1.879 4.091,-2.807C217.226,95.152 220.654,93.089 222.348,91.737a11.461,11.461 130,0 0,4.835 0.782c0.042,-0.004 0.087,-0.008 0.132,-0.012a1.191,1.191 130,0 0,0.127 -0.011A11.48,11.48 130,0 0,232.069 90.886C233.832,91.849 237.107,93.121 240.46,94.528a69.574,69.574 130,0 1,6.936 3.256,13.3 13.3,130 0,1 3.032,2.176c0.781,0.825 0.825,4.738 0.727,10.55 -0.102,5.72 -0.336,13.28 -0.156,21.553 0.051,2.297 0.133,4.648 0.259,7.031C251.801,149.299 254.084,156.81 255.98,164.348Z" id="path_112"/><path fill="#9f0c0c" d="M248.43,156.49l0,0c-8.969,0.745 -16.981,-2.665 -22.121,-5.658A49.28,49.28 130,0 1,217.21 144.094,0.433 0.433,130 0,1 217.823,143.482a48.468,48.468 130,0 0,8.94 6.613c5.028,2.924 12.856,6.257 21.592,5.531a0.433,0.433 130,0 1,0.075 0.863Z" id="path_113"/><path fill="#9f0c0c" d="M242.033,151.785C234.271,150.959 227.002,145.7 226.671,145.458A0.433,0.433 130,0 1,227.182 144.76c0.086,0.062 8.64,6.244 16.811,6.274a0.433,0.433 130,1 1,-0.003 0.867A19.07,19.07 130,0 1,242.033 151.785Z" id="path_114"/><path fill="#9f0c0c" d="M227.278,113.278a0.433,0.433 130,0 1,-0.155 -0.849C237.874,109.398 240.554,102.078 240.58,102.005a0.433,0.433 130,0 1,0.817 0.287C241.285,102.609 238.539,110.111 227.359,113.263A0.435,0.435 130,0 1,227.278 113.278Z" id="path_115"/><path fill="#ffa681" d="M240.456,94.529c-1.737,5.139 -6.623,10.731 -13.668,10.14C219.972,104.092 216.475,100.821 213.854,97.346 217.222,95.151 220.653,93.09 222.345,91.738A11.515,11.515 130,0 0,227.184 92.519a1.143,1.143 130,0 0,0.131 -0.016,1.085 1.085,130 0,0 0.13,-0.006A11.533,11.533 130,0 0,232.069 90.887C233.831,91.849 237.107,93.121 240.456,94.529Z" id="path_116"/><path fill="#fff" d="M234.31,91.055a0.342,0.342 130,0 0,-0.316 0.371c0.024,0.278 0.481,6.83 -5.347,7.851C223.24,100.228 220.528,95.21 219.644,93.108A0.307,0.307 130,0 0,219.333 92.922L219.269,92.927a0.308,0.308 130,0 0,-0.257 0.424C219.951,95.524 222.797,100.704 228.329,100.021c0.143,-0.018 0.289,-0.039 0.436,-0.065C235.216,98.827 234.689,91.445 234.683,91.37A0.344,0.344 130,0 0,234.31 91.055Z" id="path_117"/><path fill="#18315b" d="M235.418,55.918s5.96,7.671 6.125,16.189 2.37,18.176 -5.244,18.409S215.472,95.4 210.598,89.181 235.418,55.918 235.418,55.918Z" id="path_118"/><path fill="#000b29" d="M238.671,70.696s2.436,12.156 -3.092,16.045S225.504,87.225 225.504,87.225 236.285,69.042 238.671,70.696Z" id="path_119"/><path fill="#f97853" d="M214.473,72.755S212.137,70.148 210.784,72.592 212.225,81.652 215.887,79.658Z" id="path_120"/><path fill="#ea5143" d="M214.871,77.625A0.323,0.323 130,0 1,214.541 77.417,4.993 4.993,130 0,0 211.491,74.698a0.323,0.323 130,0 1,0.176 -0.618,5.564 5.564,130 0,1 3.478,3.109 0.323,0.323 130,0 1,-0.188 0.418A0.33,0.33 130,0 1,214.871 77.625Z" id="path_121"/><path fill="#ea5143" d="M212.581,76.754a0.323,0.323 130,0 1,-0.314 -0.474A2.95,2.95 130,0 1,213.39 75.205a0.323,0.323 130,0 1,0.313 0.565,2.332 2.332,130 0,0 -0.864,0.815A0.323,0.323 130,0 1,212.581 76.754Z" id="path_122"/><path fill="#f97853" d="M236.026,70.869s1.848,-2.972 3.604,-0.802S239.785,79.241 235.832,77.913Z" id="path_123"/><path fill="#ea5143" d="M236.479,75.735A0.323,0.323 130,0 0,236.768 75.473,4.993 4.993,130 0,1 239.299,72.265a0.323,0.323 130,0 0,-0.28 -0.578,5.564 5.564,130 0,0 -2.886,3.665 0.323,0.323 130,0 0,0.258 0.379A0.329,0.329 130,0 0,236.479 75.735Z" id="path_124"/><path fill="#ea5143" d="M238.589,74.478a0.323,0.323 130,0 0,0.226 -0.522A2.95,2.95 130,0 0,237.52 73.094a0.323,0.323 130,0 0,-0.211 0.611,2.336 2.336,130 0,1 0.994,0.653A0.321,0.321 130,0 0,238.589 74.478Z" id="path_125"/><path fill="#ffa681" d="M231.514,84.111L232.107,90.885s-1.719,3.626 -4.429,4.102S222.264,92.465 222.264,92.465L221.65,85.453Z" id="path_126"/><path fill="#f97853" d="M231.514,84.111L231.777,87.116C230.119,89.31 226.93,90.316 222.05,90.026L221.65,85.453Z" id="path_127"/><path fill="#ffa681" d="M237.128,66.092a66.132,66.132 130,0 1,-0.13 8.632c-0.068,0.667 -0.156,1.297 -0.265,1.864 -0.989,5.115 -3.805,13.985 -14.097,11.294C218.094,86.691 215.621,81.964 214.274,77.049a48.483,48.483 130,0 1,-1.476 -9.206,7.1 7.1,130 0,1 3.06,-6.331C221.458,57.655 227.782,58.357 232.013,59.575A7.074,7.074 130,0 1,237.128 66.092Z" id="path_128"/><path fill="#18315b" d="M220.889,72.595c0.063,0.723 -0.258,1.342 -0.718,1.382S219.287,73.463 219.224,72.74 219.482,71.399 219.942,71.359 220.826,71.872 220.889,72.595Z" id="path_129"/><path fill="#18315b" d="M231.167,71.696c0.063,0.723 -0.258,1.342 -0.718,1.382S229.565,72.563 229.502,71.841 229.76,70.5 230.22,70.459 231.103,70.972 231.167,71.696Z" id="path_130"/><path fill="#18315b" d="M218.067,68.915A13.941,13.941 130,0 1,221.581 68.07a0.621,0.621 130,0 1,0.679 0.671l0.001,0.009a0.618,0.618 130,0 1,-0.591 0.562A15.7,15.7 130,0 0,216.842 70.337,0.931 0.931,130 0,1 217.07,69.649 2.153,2.153 130,0 1,218.067 68.915Z" id="path_131"/><path fill="#18315b" d="M231.515,67.765A13.944,13.944 130,0 0,227.91 67.544,0.62 0.62,130 0,0 227.358,68.322l0.001,0.01a0.618,0.618 130,0 0,0.681 0.45,15.685 15.685,130 0,1 4.927,0.171A0.934,0.934 130,0 0,232.627 68.315,2.149 2.149,130 0,0 231.515,67.765Z" id="path_132"/><path fill="#f97853" d="M225.917,78.174a1.365,1.365 130,0 1,-0.712 -0.105,0.987 0.987,130 0,1 -0.537,-0.745A47.807,47.807 130,0 1,224.419 72.263,0.323 0.323,130 1,1 225.065,72.257 48.872,48.872 130,0 0,225.302 77.205a0.352,0.352 130,0 0,0.184 0.285,1.938 1.938,130 0,0 1.284,-0.236 0.323,0.323 130,0 1,0.295 0.576A3.447,3.447 130,0 1,225.917 78.174Z" id="path_133"/><path fill="#fff" d="M222.01,80.562C222.361,81.765 223.366,83.946 226.089,83.708S229.407,81.344 229.545,79.903Z" id="path_134"/><path fill="#f97853" d="M226.215,85.589A3.226,3.226 130,0 1,224.667 85.282,0.323 0.323,130 0,1 224.957,84.702l0,0A2.6,2.6 130,0 0,226.158 84.946,2.753 2.753,130 0,0 227.364,84.491 0.323,0.323 130,0 1,227.745 85.012,3.376 3.376,130 0,1 226.215,85.589Z" id="path_135"/><path fill="#18315b" d="M238.381,65.454a1.064,1.064 130,0 1,-0.722 0.665,20.507 20.507,130 0,1 0.092,2.391c0.008,4.685 -1.092,5.604 -1.457,4.478a53.871,53.871 130,0 1,-0.656 -6.568,15.192 15.192,130 0,1 -1.722,-0.064L232.442,61.935l0.013,4.492c-1.569,0.704 -5.422,0.133 -5.422,0.133L225.376,62.221l-0.408,4.352a9.05,9.05 130,0 1,-5.425 0.876l-1.101,-4.558L217.236,67.645s-5.018,2.31 -5.233,0.458A34.916,34.916 130,0 1,212.862 61.496,9.791 9.791,130 0,1 217.042,55.116a17.2,17.2 130,0 1,15.521 -1.582C237.762,56.051 238.381,65.454 238.381,65.454Z" id="path_136"/><path fill="#18315b" d="M214.005,58.138S210.185,63.579 209.576,72.755s-1.966,16.032 3.75,18.544c6.188,2.719 5.096,-3.872 4.853,-5.669S212.483,79.351 214.62,65.171C215.31,60.594 214.005,58.138 214.005,58.138Z" id="path_137"/><path fill="#000b29" d="M214.645,76.933L214.646,76.944C214.652,77.011 214.689,77.371 214.764,77.927c0.044,0.349 0.103,0.771 0.177,1.252 0.466,3.033 1.525,8.248 3.424,9.923a5.844,5.844 130,0 0,3.684 0.919L221.84,87.629A9.521,9.521 130,0 1,217.601 84.328,22.488 22.488,130 0,1 214.843,77.828Z" id="path_138"/><path fill="#fff" d="M238.238,77.856A0.757,0.757 130,1 1,237.419 77.167,0.757 0.757,130 0,1 238.238,77.856Z" id="path_139"/><path fill="#d31818" d="M258.569,133.299c-1.601,6.3 -11.201,6.691 -22.385,4.302l-0.048,-0.01 -0.102,-0.023 -1.536,-0.346c-0.212,-0.05 -0.427,-0.1 -0.64,-0.153q-1.812,-0.435 -3.653,-0.958A122.049,122.049 130,0 1,218.24 132.02l0.02,-0.067 0.861,-2.986 0.293,-1.017s20.383,0.433 30.35,-2.577c0.169,-0.051 0.334,-0.102 0.495,-0.155a6.338,6.338 130,0 0,-0.174 -0.66C243.104,106.711 248.679,102.685 250.425,99.959 250.425,99.959 261.589,121.406 258.569,133.299Z" id="path_140"/><path fill="#9f0c0c" d="M254.783,127.918a0.441,0.441 130,0 1,-0.184 0.059A0.433,0.433 130,0 1,254.19 127.771C253.283,126.263 250.589,125.554 249.764,125.367 249.933,125.316 250.098,125.265 250.259,125.212 250.2,124.992 250.142,124.771 250.085,124.553c1.05,0.247 3.805,1.042 4.845,2.772A0.433,0.433 130,0 1,254.783 127.918Z" id="path_141"/><path fill="#9f0c0c" d="M226.436,129.627C222.314,129.988 218.948,130.042 218.654,130.046a0.432,0.432 130,0 1,-0.012 -0.864C218.796,129.18 234.033,128.926 239.794,125.981a0.432,0.432 130,0 1,0.392 0.769C236.999,128.381 231.21,129.21 226.436,129.627Z" id="path_142"/><path fill="#9f0c0c" d="M234.49,137.221L234.49,137.221C237.864,135.967 240.923,134.763 242.686,134.026c2.448,-1.028 4.308,-3.756 5.066,-6.002a0.433,0.433 130,0 1,0.819 0.277c-0.82,2.43 -2.854,5.39 -5.553,6.524C241.741,135.358 239.784,136.137 237.518,137.003A5.247,5.247 130,0 1,234.49 137.221Z" id="path_143"/><path fill="#d31818" d="M243.545,133.447C213.261,146.686 203.059,140.648 203.059,140.648 199.296,121.835 205.543,104.075 205.543,104.075a86.872,86.872 130,0 1,5.779 9.926L213.277,128.503l-0.016,0.409 -0.007,0.192 -0.042,1.008 0.002,0.02 0.203,0.025c9.613,1.167 26.678,-2.57 26.678,-2.57Z" id="path_144"/><path fill="#9f0c0c" d="M213.416,130.158A30.841,30.841 130,0 0,209.135 135.48a0.433,0.433 130,0 1,-0.733 -0.461l0,0A31.684,31.684 130,0 1,213.255 129.105l-0.042,1.008 0.002,0.02Z" id="path_145"/><path fill="#ffa681" d="M240.097,127.588S242.865,119.439 248.178,119.678l2.081,5.54c-2.768,1.473 -2.757,6.44 -6.714,8.232Z" id="path_146"/><path fill="#ffa681" d="M219.415,127.945A12.553,12.553 130,0 0,210.914 122.03C205.042,121.046 201.621,124.072 201.328,125.127s2.17,-0.144 2.17,-0.144A4.973,4.973 130,0 0,201.058 127.243c-0.817,1.644 2.308,-0.326 2.308,-0.326S201.11,128.15 200.895,129.13s2.739,-0.902 3.323,-0.922c0,0 -2.669,1.338 -2.563,2.322s3.121,-0.898 5.488,-0.982A37.376,37.376 130,0 1,213.209 130.133a39.74,39.74 130,0 0,5.503 0.24Z" id="path_147"/></svg>