<svg id="vector" xmlns="http://www.w3.org/2000/svg" width="51.078" height="35.754" viewBox="0 0 51.078 35.754"><path d="M43.416,0L7.662,0A7.662,7.662 0,0 0,0 7.662L0,28.092a7.662,7.662 0,0 0,7.662 7.662L43.416,35.754a7.662,7.662 0,0 0,7.662 -7.662L51.078,7.662A7.662,7.662 0,0 0,43.416 0ZM5.108,7.662a2.554,2.554 0,0 1,2.554 -2.554L43.416,5.108a2.554,2.554 0,0 1,2.554 2.554v2.554L5.108,10.216ZM45.969,28.092a2.554,2.554 0,0 1,-2.554 2.554L7.662,30.646a2.554,2.554 0,0 1,-2.554 -2.554L5.108,15.323L45.969,15.323Z" id="path_0"/><path  d="M12.769,25.539L22.984,25.539a2.554,2.554 0,1 0,0 -5.108L12.769,20.431a2.554,2.554 0,0 0,0 5.108ZM33.2,25.539h5.108a2.554,2.554 0,0 0,0 -5.108L33.2,20.431a2.554,2.554 0,0 0,0 5.108Z" id="path_1"/></svg>
