<svg width="350" height="154" viewBox="0 0 350 154" fill="none" xmlns="http://www.w3.org/2000/svg">
<g filter="url(#filter0_d_401_43)">
<path d="M50.7857 67.4496H29.3771C24.774 67.4496 21.0299 63.7048 21.0299 59.1024C21.0299 59.0538 20.9905 59.0145 20.942 59.0145H4.08794C4.0394 59.0145 4 59.0538 4 59.1024C4 73.0952 15.3842 84.4795 29.3771 84.4795H50.7857C64.7792 84.4795 76.1628 73.0952 76.1628 59.1024C76.1628 45.1095 64.7785 33.7253 50.7857 33.7253H29.3771C24.774 33.7253 21.0299 29.9805 21.0299 25.3781C21.0299 20.7757 24.774 17.031 29.3771 17.031H50.7857C55.3888 17.031 59.1328 20.7758 59.1328 25.3781C59.1328 25.4267 59.1722 25.4661 59.2208 25.4661H76.0748C76.1234 25.4661 76.1628 25.4267 76.1628 25.3781C76.1628 11.3853 64.7785 0.0010376 50.7857 0.0010376H29.3771C15.3835 0.0010376 4 11.3853 4 25.3781C4 39.371 15.3842 50.7552 29.3771 50.7552H50.7857C55.3888 50.7552 59.1328 54.5 59.1328 59.1024C59.1328 63.7048 55.3888 67.4496 50.7857 67.4496Z" fill="#2FBC6C"/>
<path d="M90.0103 56.0784H108.288C108.316 56.0784 108.342 56.065 108.359 56.0425C108.375 56.02 108.38 55.9905 108.371 55.9637L99.2327 27.5629C99.2094 27.4898 99.0884 27.4898 99.0652 27.5629L89.9266 55.9637C89.9182 55.9905 89.9224 56.02 89.9393 56.0425C89.9562 56.065 89.9822 56.0784 90.0103 56.0784ZM113.712 72.7657H84.5862C84.5482 72.7657 84.5145 72.7903 84.5025 72.8269L80.788 84.3645C80.7795 84.3912 80.7838 84.4208 80.8006 84.4433C80.8175 84.4658 80.8435 84.4792 80.8717 84.4792H117.426C117.454 84.4792 117.48 84.4658 117.497 84.4433C117.513 84.4208 117.518 84.3912 117.51 84.3645L113.795 72.8269C113.783 72.7903 113.75 72.7657 113.712 72.7657ZM207.085 67.4429H152.078V0.0886688C152.078 0.0401288 152.038 0.000732422 151.99 0.000732422H108.002C107.974 0.000732422 107.948 0.0141111 107.931 0.0366211C107.915 0.0591311 107.91 0.0886722 107.918 0.115402L135.046 84.4173C135.047 84.4215 135.053 84.4208 135.056 84.4243C135.07 84.4539 135.094 84.4785 135.129 84.4785H207.085C207.134 84.4785 207.173 84.4391 207.173 84.3905V67.5309C207.173 67.4823 207.135 67.4429 207.085 67.4429Z" fill="#2FBC6C"/>
<path d="M256.271 48.415V0.0879364C256.271 0.0393964 256.232 0 256.183 0H217.933C217.885 0 217.845 0.0393964 217.845 0.0879364V48.415C217.845 59.0071 226.463 67.6244 237.055 67.6244C247.65 67.6244 256.271 59.0071 256.271 48.415ZM302.844 0.00140381H273.039C272.99 0.00140381 272.951 0.0408002 272.951 0.0893402V48.4143C272.951 68.2041 256.851 84.304 237.061 84.304C237.012 84.304 236.973 84.3434 236.973 84.3919C236.973 84.4405 237.012 84.4799 237.061 84.4799H302.844C326.135 84.4799 345.083 65.5315 345.083 42.241C345.083 18.9505 326.135 0.00140381 302.844 0.00140381ZM302.844 67.4429H289.981V17.0377H302.844C316.741 17.0377 328.047 28.3431 328.047 42.2403C328.047 56.1375 316.741 67.4429 302.844 67.4429Z" fill="#2FBC6C"/>
<path d="M4.04616 145.539H12.8967C12.9222 145.539 12.9429 145.518 12.9429 145.493V127.838H32.9712C32.9967 127.838 33.0174 127.817 33.0174 127.792V118.941C33.0174 118.916 32.9967 118.895 32.9712 118.895H12.9429V110.137H41.8185C41.8439 110.137 41.8646 110.116 41.8646 110.091V101.24C41.8646 101.215 41.8439 101.194 41.8185 101.194H4.04616C4.02068 101.194 4 101.215 4 101.24V145.493C4 145.518 4.02068 145.539 4.04616 145.539Z" fill="#2FBC6C"/>
<path d="M47.5165 145.539H56.3637C56.3892 145.539 56.4099 145.518 56.4099 145.493V101.24C56.4099 101.215 56.3892 101.194 56.3637 101.194H47.5165C47.491 101.194 47.4703 101.215 47.4703 101.24V145.493C47.4703 145.518 47.491 145.539 47.5165 145.539Z" fill="#2FBC6C"/>
<path d="M62.0664 145.54H70.9111C70.9365 145.54 70.9572 145.52 70.9572 145.494V115.707L89.3958 145.518C89.4039 145.532 89.419 145.54 89.4349 145.54H99.838C99.8635 145.54 99.8841 145.52 99.8841 145.494V101.241C99.8841 101.216 99.8635 101.195 99.838 101.195H90.9897C90.9642 101.195 90.9435 101.216 90.9435 101.241V131.029L72.509 101.217C72.5009 101.203 72.4857 101.195 72.4698 101.195H62.0664C62.0409 101.195 62.0203 101.216 62.0203 101.241V145.494C62.0203 145.52 62.0409 145.54 62.0664 145.54Z" fill="#2FBC6C"/>
<path d="M110.334 130.631H119.928C119.943 130.631 119.957 130.624 119.966 130.612C119.974 130.6 119.977 130.585 119.972 130.571L115.175 115.662C115.163 115.624 115.099 115.624 115.087 115.662L110.29 130.571C110.286 130.585 110.288 130.6 110.297 130.612C110.305 130.624 110.319 130.631 110.334 130.631ZM122.775 139.391H107.487C107.467 139.391 107.449 139.404 107.443 139.423L105.493 145.479C105.488 145.493 105.491 145.509 105.499 145.521C105.508 145.532 105.522 145.539 105.537 145.539H124.725C124.74 145.539 124.754 145.532 124.763 145.521C124.771 145.509 124.774 145.493 124.769 145.479L122.819 139.423C122.814 139.404 122.796 139.391 122.775 139.391ZM171.79 101.194H162.942C162.916 101.194 162.896 101.215 162.896 101.241V131.028L144.461 101.216C144.452 101.202 144.438 101.194 144.422 101.194H119.779C119.764 101.194 119.75 101.201 119.741 101.213C119.733 101.225 119.73 101.241 119.735 101.255L133.975 145.507C133.976 145.509 133.979 145.509 133.98 145.511C133.987 145.526 134 145.539 134.019 145.539H142.863C142.889 145.539 142.91 145.519 142.91 145.493V115.706L161.348 145.518C161.357 145.531 161.371 145.539 161.387 145.539H171.79C171.816 145.539 171.836 145.519 171.836 145.493V101.241C171.836 101.215 171.816 101.194 171.79 101.194Z" fill="#2FBC6C"/>
<path d="M199.611 145.529C205.289 145.529 210.967 143.368 215.289 139.045C215.307 139.027 215.307 138.998 215.289 138.98L209.031 132.721C209.014 132.704 208.984 132.704 208.966 132.721C203.808 137.88 195.414 137.88 190.256 132.721C187.757 130.223 186.381 126.9 186.381 123.367C186.381 119.833 187.758 116.511 190.256 114.012C195.414 108.853 203.808 108.853 208.966 114.012C208.984 114.029 209.014 114.029 209.031 114.012L215.289 107.753C215.307 107.735 215.307 107.706 215.289 107.688C206.644 99.0426 192.578 99.0426 183.933 107.688C179.745 111.876 177.438 117.443 177.438 123.366C177.438 129.289 179.745 134.857 183.933 139.045C188.255 143.368 193.933 145.529 199.611 145.529Z" fill="#2FBC6C"/>
<path d="M220.322 145.539H229.169C229.195 145.539 229.216 145.518 229.216 145.493V101.24C229.216 101.215 229.195 101.194 229.169 101.194H220.322C220.297 101.194 220.276 101.215 220.276 101.24V145.493C220.276 145.518 220.297 145.539 220.322 145.539Z" fill="#2FBC6C"/>
<path d="M234.872 145.539H272.645C272.67 145.539 272.691 145.518 272.691 145.493V136.642C272.691 136.617 272.67 136.596 272.645 136.596H243.769V127.838H263.798C263.823 127.838 263.844 127.817 263.844 127.792V118.941C263.844 118.916 263.823 118.895 263.798 118.895H243.769V110.137H272.645C272.67 110.137 272.691 110.116 272.691 110.091V101.24C272.691 101.215 272.67 101.194 272.645 101.194H234.872C234.847 101.194 234.826 101.215 234.826 101.24V145.493C234.826 145.518 234.847 145.539 234.872 145.539Z" fill="#2FBC6C"/>
<path d="M289.987 110.043H278.343C278.317 110.043 278.296 110.063 278.296 110.089V126.951C278.296 126.976 278.317 126.997 278.343 126.997H289.987C291.756 126.997 293.446 126.46 294.873 125.445C297.121 123.857 298.464 121.268 298.464 118.52C298.464 113.846 294.661 110.043 289.987 110.043ZM290.898 135.753C290.889 135.739 290.873 135.733 290.856 135.731C290.565 135.746 290.273 135.753 289.987 135.753H278.343C278.317 135.753 278.296 135.774 278.296 135.799V145.493C278.296 145.519 278.317 145.539 278.343 145.539H296.866C296.883 145.539 296.899 145.53 296.907 145.516C296.915 145.501 296.915 145.483 296.906 145.469L290.898 135.753ZM330.841 101.226C330.835 101.207 330.817 101.194 330.797 101.194H325.297C325.296 101.194 325.296 101.193 325.295 101.193H307.266C307.265 101.193 307.264 101.194 307.263 101.194H289.986C289.961 101.194 289.94 101.215 289.94 101.24C289.94 101.266 289.961 101.287 289.986 101.287C299.489 101.287 307.22 109.017 307.22 118.52C307.22 124.327 304.325 129.703 299.478 132.902C299.457 132.916 299.451 132.943 299.464 132.965L307.226 145.517C307.227 145.517 307.227 145.517 307.228 145.518C307.228 145.519 307.228 145.519 307.228 145.52C307.228 145.52 307.229 145.52 307.229 145.52C307.236 145.529 307.245 145.536 307.257 145.538C307.26 145.538 307.263 145.539 307.265 145.539H316.557C316.577 145.539 316.595 145.526 316.601 145.506L318.54 139.481H333.763L335.702 145.506C335.708 145.526 335.726 145.539 335.746 145.539H345.037C345.052 145.539 345.066 145.531 345.074 145.519C345.083 145.507 345.085 145.492 345.081 145.478L330.841 101.226ZM321.418 130.537L326.152 115.827L330.885 130.537H321.418Z" fill="#2FBC6C"/>
</g>
<defs>
<filter id="filter0_d_401_43" x="0" y="0" width="349.083" height="153.54" filterUnits="userSpaceOnUse" color-interpolation-filters="sRGB">
<feFlood flood-opacity="0" result="BackgroundImageFix"/>
<feColorMatrix in="SourceAlpha" type="matrix" values="0 0 0 0 0 0 0 0 0 0 0 0 0 0 0 0 0 0 127 0" result="hardAlpha"/>
<feOffset dy="4"/>
<feGaussianBlur stdDeviation="2"/>
<feComposite in2="hardAlpha" operator="out"/>
<feColorMatrix type="matrix" values="0 0 0 0 0 0 0 0 0 0 0 0 0 0 0 0 0 0 0.25 0"/>
<feBlend mode="normal" in2="BackgroundImageFix" result="effect1_dropShadow_401_43"/>
<feBlend mode="normal" in="SourceGraphic" in2="effect1_dropShadow_401_43" result="shape"/>
</filter>
</defs>
</svg>
